<?xml version="1.0" encoding="utf-8"?>
<!-- Generator: Adobe Illustrator 27.1.0, SVG Export Plug-In . SVG Version: 6.00 Build 0)  -->
<svg version="1.1"
	 id="svg17" xmlns:sodipodi="http://sodipodi.sourceforge.net/DTD/sodipodi-0.dtd" xmlns:svg="http://www.w3.org/2000/svg" xmlns:inkscape="http://www.inkscape.org/namespaces/inkscape"
	 xmlns="http://www.w3.org/2000/svg" xmlns:xlink="http://www.w3.org/1999/xlink" x="0px" y="0px" viewBox="0 0 130.8 75.4"
	 style="enable-background:new 0 0 130.8 75.4;" xml:space="preserve">
<style type="text/css">
	.st0{fill:#3B3C98;}
</style>
<sodipodi:namedview  bordercolor="#000000" borderopacity="0.25" id="namedview19" inkscape:deskcolor="#d1d1d1" inkscape:pagecheckerboard="0" inkscape:pageopacity="0.0" inkscape:showpageshadow="2" pagecolor="#ffffff">
	</sodipodi:namedview>
<g id="SvgjsG2382" transform="matrix(2,0,0,2,0,-19)">
	<g id="g11" transform="translate(-270 -140)">
		<g id="g9">
			<path id="path3" class="st0" d="M289.6,174.6c-1.6,0-3,0.9-3.8,2.2c-0.4,0.6-0.6,1.4-0.6,2.2c0,2.4,2,4.4,4.4,4.4
				c2.4,0,4.4-2,4.4-4.4c0-0.8-0.2-1.5-0.6-2.2C292.6,175.4,291.2,174.6,289.6,174.6z"/>
			<path id="path5" class="st0" d="M320.1,174.6c-1.6,0-3,0.9-3.8,2.2c-0.4,0.6-0.6,1.4-0.6,2.2c0,2.4,2,4.4,4.4,4.4
				c2.4,0,4.4-2,4.4-4.4c0-0.8-0.2-1.5-0.6-2.2C323.1,175.4,321.7,174.6,320.1,174.6z"/>
			<path id="path7" class="st0" d="M333.2,170.2V168l-13.1-3.7l-15.3-9.3h-24v2.2H294v2.2h-24v2.2h26.2v2.2h-21.8v2.2h10.9v2.2h-4.4
				v2.2h-8.7v2.2h10.9v2.2h-2.2v2.2h-6.5v2.2h8.7c0-0.8,0.2-1.5,0.4-2.2c0.9-2.5,3.3-4.4,6.1-4.4c2.8,0,5.2,1.8,6.1,4.4
				c0.2,0.7,0.4,1.4,0.4,2.2h17.4c0-0.8,0.2-1.5,0.4-2.2c0.9-2.5,3.3-4.4,6.1-4.4c2.8,0,5.2,1.8,6.1,4.4c0.2,0.7,0.4,1.4,0.4,2.2
				h6.5v-2.2h2.2v-6.5H333.2z"/>
		</g>
	</g>
</g>
</svg>
